HIERARCHY
ROOT Hips
{
  OFFSET 279.157 85.6768 304.565
  CHANNELS 6 Xposition Yposition Zposition Zrotation Xrotation Yrotation
  JOINT LeftUpLeg
  {
    OFFSET 8.64259 1.95398 -2.38835
    CHANNELS 3 Zrotation Xrotation Yrotation
    JOINT LeftLeg
    {
      OFFSET 43.7702 0 0
      CHANNELS 3 Zrotation Xrotation Yrotation
      JOINT LeftFoot
      {
        OFFSET 40.6238 0 0
        CHANNELS 3 Zrotation Xrotation Yrotation
        JOINT LeftToeBase
        {
          OFFSET 12.7242 0 0
          CHANNELS 3 Zrotation Xrotation Yrotation
          End Site
          {
            OFFSET 0 0 0
          }
        }
      }
    }
  }
  JOINT RightUpLeg
  {
    OFFSET -8.2249 1.95398 -2.59336
    CHANNELS 3 Zrotation Xrotation Yrotation
    JOINT RightLeg
    {
      OFFSET 43.5653 0 0
      CHANNELS 3 Zrotation Xrotation Yrotation
      JOINT RightFoot
      {
        OFFSET 40.6238 0 0
        CHANNELS 3 Zrotation Xrotation Yrotation
        JOINT RightToeBase
        {
          OFFSET 12.7242 0 0
          CHANNELS 3 Zrotation Xrotation Yrotation
          End Site
          {
            OFFSET 0 0 0
          }
        }
      }
    }
  }
  JOINT Spine
  {
    OFFSET 0.165834 0.87714 6.61349
    CHANNELS 3 Zrotation Xrotation Yrotation
    JOINT Spine1
    {
      OFFSET 7.38963 1.71661e-005 0
      CHANNELS 3 Zrotation Xrotation Yrotation
      JOINT Spine2
      {
        OFFSET 11.9445 1.14441e-005 0
        CHANNELS 3 Zrotation Xrotation Yrotation
        JOINT Spine3
        {
          OFFSET 14.7254 4.19617e-005 0
          CHANNELS 3 Zrotation Xrotation Yrotation
          JOINT Spine4
          {
            OFFSET 10.9679 0 0
            CHANNELS 3 Zrotation Xrotation Yrotation
            JOINT RightShoulder
            {
              OFFSET 2.46616 -1.6653 3.69651
              CHANNELS 3 Zrotation Xrotation Yrotation
              JOINT RightArm
              {
                OFFSET 13.0012 0 0
                CHANNELS 3 Zrotation Xrotation Yrotation
                JOINT RightForeArm
                {
                  OFFSET 28.7848 1.52588e-005 0
                  CHANNELS 3 Zrotation Xrotation Yrotation
                  JOINT RightHand
                  {
                    OFFSET 26.5688 1.52588e-005 0
                    CHANNELS 3 Zrotation Xrotation Yrotation
                    End Site
                    {
                      OFFSET 0 0 0
                    }
                  }
                }
              }
            }
            JOINT LeftShoulder
            {
              OFFSET 2.38034 -1.29275 -3.7523
              CHANNELS 3 Zrotation Xrotation Yrotation
              JOINT LeftArm
              {
                OFFSET 16.3182 6.10351e-005 0
                CHANNELS 3 Zrotation Xrotation Yrotation
                JOINT LeftForeArm
                {
                  OFFSET 27.0901 0 0
                  CHANNELS 3 Zrotation Xrotation Yrotation
                  JOINT LeftHand
                  {
                    OFFSET 24.5451 1.52588e-005 0
                    CHANNELS 3 Zrotation Xrotation Yrotation
                    End Site
                    {
                      OFFSET 0 0 0
                    }
                  }
                }
              }
            }
            JOINT Neck
            {
              OFFSET 5.0226 -0.0266342 0
              CHANNELS 3 Zrotation Xrotation Yrotation
              JOINT Head
              {
                OFFSET 6.69364 2.86102e-005 0
                CHANNELS 3 Zrotation Xrotation Yrotation
                End Site
                {
                  OFFSET 0 0 0
                }
              }
            }
          }
        }
      }
    }
  }
}
MOTION
Frames:	15
Frame Time:	0.0416667
-104.225 23.0727 110.079 -9.71189 -11.1317 -89.664 -146.485 25.4081 106.665 -59.3848 19.5436 -15.4276 77.9905 9.72444 -6.15232 34.3539 -0.0109027 16.6141 169.584 6.17476 83.8303 -33.9391 -15.1973 0.403162 70.2665 -5.97512 1.13915 29.2629 -0.948463 6.37843 -0.0469239 6.99441 -89.4544 12.883 0.168338 1.07052 1.21166 0.215272 1.06206 -21.32 -0.161173 1.07161 -1.30737 -0.16118 1.07159 83.5673 -30.2653 -119.091 -122.149 71.0958 116.347 -59.4664 -22.0814 -148.02 -43.5984 -8.87309 6.91343 -92.1975 -47.5395 74.8218 -21.022 -33.7338 -73.4475 56.8423 -0.318864 -97.2688 -0.489204 -0.139314 -7.33757 47.2875 -1.54856 1.78849 -9.59272 -2.43014 -0.213213 
-102.84 24.1469 112.24 -9.75715 -7.12978 -89.0479 -149.206 21.771 106.781 -56.3398 15.0774 -14.4026 65.1403 1.81149 -5.62917 31.5421 -1.45995 13.9578 168.411 9.95329 82.7955 -38.4259 -15.0781 1.10888 70.9499 -5.95231 1.54137 30.9986 -1.52023 7.19546 0.296674 6.96132 -89.6382 12.9492 0.76266 0.630796 1.2783 0.789693 0.596606 -21.2566 0.537836 0.830826 -1.24401 0.537833 0.830804 82.8198 -28.581 -121.47 -119.666 72.1877 111.172 -58.9793 -26.6942 -138.825 -44.9838 -6.8658 1.17138 -92.2743 -47.6285 74.7275 -20.8496 -31.4662 -75.4057 59.3133 1.36418 -95.5564 -0.496047 -0.123823 -6.36046 46.0901 -0.537642 3.72925 -9.19455 -2.4157 -1.92128 
-100.934 25.1426 114.338 -9.71181 -3.1202 -87.9581 -151.966 16.531 106.097 -48.6175 6.93929 -14.2964 66.5706 2.73017 -5.45753 28.429 -3.60445 13.7876 168.171 13.4713 81.9047 -42.2137 -17.8355 1.05788 72.6303 -6.56429 2.22942 32.4624 -1.90478 6.99944 0.703531 6.99049 -89.889 12.893 1.45022 0.0479037 1.22289 1.45093 -0.0159739 -21.3181 1.36876 0.481641 -1.30546 1.36877 0.481624 84.7819 -24.9376 -119.782 -119.972 74.304 111.115 -60.3997 -29.8523 -132.946 -44.6797 -6.09598 -0.797273 -92.0031 -46.1123 74.7423 -23.9855 -29.6802 -79.3303 61.217 2.88016 -94.8427 -2.20819 -0.0926741 -5.14543 46.0552 -0.166439 3.80421 -9.46308 -2.10968 -1.82259 
-98.6503 26.2945 116.068 -10.3454 -2.06976 -88.2777 -152.754 13.4558 104.802 -39.3929 6.48923 -15.1922 73.4806 6.8055 -6.91665 32.7537 -1.39679 17.6823 166.89 15.7973 80.1949 -45.1237 -19.8897 1.47536 74.6675 -7.89654 1.23425 35.8693 -2.84435 7.50969 0.768618 7.14664 -90.1106 12.5848 1.47406 -0.394242 0.914568 1.45527 -0.458769 -21.6273 1.52439 0.0670933 -1.61468 1.52438 0.0671072 86.0497 -21.2147 -119.425 -118.544 76.4623 107.53 -59.8423 -32.8897 -124.728 -43.9661 -5.18002 -2.88053 -92.2267 -47.0461 74.6501 -26.6516 -27.9625 -84.9381 65.463 5.03211 -94.1753 -4.27795 -0.0725302 -5.39537 46.3896 0.969724 5.95252 -9.46363 -2.13376 -3.4691 
-96.7605 27.636 117.263 -11.2649 -1.05492 -88.0581 -153.332 14.2911 104.224 -38.1254 10.6193 -14.2913 76.3355 8.97001 -6.43447 35.7951 0.395309 20.1871 166.096 18.0707 79.5664 -48.7713 -19.6337 1.8188 75.8632 -8.48849 1.18639 39.9642 -3.85363 2.58694 0.870179 7.32352 -90.1043 12.2309 1.6802 -0.396138 0.560945 1.66116 -0.469713 -21.9829 1.72154 0.127301 -1.97029 1.72154 0.127276 86.1922 -21.4967 -118.933 -115.988 79.2797 100.728 -60.6807 -35.5274 -116.037 -41.389 -4.55888 -4.00303 -92.1407 -43.2652 73.7365 -29.8724 -26.0934 -88.7809 70.7857 7.53159 -93.9524 -5.26792 -0.0669018 -5.30459 46.0258 -0.315377 3.43537 -8.70293 -2.10597 -1.07027 
-95.4839 28.7118 118.647 -11.9003 1.43914 -88.0289 -152.93 15.5911 104.01 -41.6648 11.3646 -13.7739 78.8276 10.0627 -8.07098 35.6717 0.217425 20.6443 165.771 21.6739 79.3084 -54.178 -18.5604 1.72458 76.2567 -8.69612 0.736019 38.1539 -3.29028 2.67615 0.946633 7.38194 -90.1188 12.115 1.82568 -0.438225 0.445228 1.80462 -0.518184 -22.1003 1.87294 0.130899 -2.0876 1.87294 0.130914 85.3151 -20.2736 -121.661 -99.1037 80.6542 81.6429 -57.5239 -37.6549 -105.583 -42.2887 -3.76947 -6.07049 -91.4122 -42.0074 74.5553 -29.9864 -25.5701 -90.959 72.2404 10.053 -92.9836 -5.50277 -0.108156 -3.71701 44.7756 -0.225209 3.24431 -8.19441 -1.86025 -1.45874 
-94.8931 28.7163 120.262 -12.1535 2.05003 -87.6559 -152.41 17.1632 103.897 -45.3978 13.2704 -13.4822 79.8839 10.8191 -7.9571 34.4727 -0.621303 20.1508 163.961 23.0362 78.4902 -55.9035 -17.7783 2.63924 75.7621 -8.44084 0.470839 38.5848 -3.40501 2.04571 0.928478 7.31341 -90.2602 12.2539 1.7221 -0.712263 0.583891 1.68908 -0.787402 -21.9603 1.85651 -0.161613 -1.94765 1.85652 -0.161608 86.3929 -19.8741 -119.541 -95.9204 84.9438 78.182 -63.8615 -38.7452 -105.126 -37.6335 -4.04465 -5.37709 -90.6528 -41.0787 75.5467 -31.7197 -23.5006 -92.3417 74.6646 11.6569 -92.8135 -6.16331 -0.0909952 -4.33943 45.3787 0.518022 3.38929 -8.48104 -1.22934 -1.99829 
-94.7365 27.5486 121.86 -12.5439 2.71781 -86.9982 -150.945 18.6411 104.464 -49.9856 13.9493 -13.6336 79.1938 10.2239 -8.27703 34.7195 -0.444459 20.2201 162.964 22.3201 77.4485 -55.4453 -19.0069 2.91516 75.3581 -8.26781 0.639179 40.058 -3.86465 1.61824 1.02288 7.19894 -90.3177 12.4841 1.881 -0.851757 0.814147 1.84168 -0.933748 -21.7316 2.04999 -0.24686 -1.71894 2.04999 -0.246863 88.6302 -18.4627 -115.323 -157.311 87.9373 145.237 -68.8195 -37.2857 -112.909 -34.3546 -4.88127 -2.33143 -92.8724 -40.0969 71.587 -30.6615 -24.5943 -91.7444 74.922 13.1461 -92.097 -6.80512 -0.0814964 -4.60629 47.4055 -1.02195 -0.367108 -10.4982 -0.837985 1.12236 
-94.8602 25.7576 123.404 -12.6472 1.90761 -86.7702 -150.306 18.2047 104.546 -51.5947 15.094 -13.6185 79.8611 10.6425 -8.18594 34.5224 -0.558184 20.023 161.311 20.8447 75.4163 -54.0079 -20.4378 3.59525 75.9398 -8.40274 1.49868 39.3927 -3.64163 1.2799 1.01641 7.03428 -90.407 12.8144 1.82359 -1.03177 1.14426 1.77646 -1.11102 -21.4003 2.04935 -0.435818 -1.38765 2.04935 -0.435817 90.2306 -13.878 -114.351 -150.287 82.5988 152.325 -68.08 -30.763 -127.999 -30.6384 -5.31879 0.947949 -90.699 -40.1766 75.2184 -31.7596 -18.4207 -91.9095 75.626 12.9109 -92.2889 -7.59223 -0.0748127 -4.71463 47.498 -0.27017 1.23712 -10.5947 -0.89952 -0.597275 
-95.1071 24.1578 124.765 -12.4147 0.218344 -86.4109 -151.806 15.4525 103.909 -49.0473 14.1121 -12.9132 82.5945 12.0181 -8.94599 34.8212 -0.151928 19.1259 159.399 19.3 73.6311 -52.0933 -21.9981 4.84249 75.9135 -8.29409 1.82562 38.8949 -3.46652 0.814891 1.05524 6.87232 -90.3844 13.1389 1.90948 -1.00527 1.4689 1.8634 -1.08835 -21.0768 2.1233 -0.384699 -1.06418 2.12329 -0.384704 89.6754 -17.5368 -113.452 -133.024 78.7069 148.969 -64.8486 -21.9177 -141.089 -32.8899 -6.83841 5.5561 -91.6406 -35.8789 72.2985 -34.6842 -16.5412 -91.1279 77.1423 13.6483 -92.7465 -7.21266 -0.107123 -3.95619 46.7503 -2.38457 -1.77956 -10.044 -1.41609 2.32723 
-94.955 23.3115 126.114 -11.839 -1.86571 -87.1677 -152.886 14.0336 101.623 -48.6441 12.2404 -12.5353 84.5462 13.1923 -9.08618 34.6747 -0.398096 19.8132 158.079 19.3536 70.8323 -50.5358 -25.5949 5.19953 74.9773 -7.89687 1.90196 40.7987 -4.09045 0.694489 1.1067 6.78525 -90.4871 13.3147 1.9608 -1.22283 1.64462 1.90511 -1.30795 -20.9011 2.23762 -0.576786 -0.888398 2.23762 -0.576781 85.802 -25.6067 -117.298 -128.254 68.1026 144.195 -63.0883 -21.1742 -147.938 -37.1609 -7.98698 6.24761 -89.2261 -37.3509 76.9579 -35.204 -8.70513 -92.8795 77.6495 13.8242 -92.4948 -6.39091 -0.132129 -3.19915 46.8295 -1.7166 2.10588 -10.3415 -2.81469 0.474538 
-94.4968 22.6161 127.589 -11.0622 -6.21161 -88.3635 -154.778 14.1305 98.5972 -49.9753 12.456 -11.4231 85.0865 13.7136 -8.81243 35.4057 0.0654463 20.3398 155.112 19.4668 66.9886 -48.4033 -28.7279 6.5862 74.3351 -7.73679 1.87987 43.4004 -4.94352 1.27292 0.980776 6.79426 -90.6293 13.296 1.6423 -1.46657 1.62519 1.57618 -1.53743 -20.9153 2.00711 -0.905132 -0.90261 2.00712 -0.90513 85.6834 -26.6357 -116.958 -131.765 58.759 142.505 -58.7988 -25.45 -152.473 -39.8169 -8.22436 5.96842 -88.4922 -38.0189 78.3906 -36.8295 -5.95994 -95.536 76.8833 13.9102 -92.108 -6.51299 -0.140743 -2.98396 46.2314 -1.19611 5.6349 -9.65771 -4.21984 -0.0867623 
-94.0077 22.7558 128.637 -9.63977 -7.94256 -91.1432 -156.798 14.1161 94.7039 -49.3276 13.8284 -10.9269 85.5065 13.9083 -9.37363 34.2568 -0.90204 20.6944 153.743 23.2332 63.541 -49.2578 -30.6892 6.89624 73.9138 -7.73368 1.57384 44.3427 -5.25002 1.26779 0.788895 6.66686 -90.646 13.5472 1.25155 -1.45583 1.87595 1.18628 -1.50948 -20.6604 1.6312 -1.01239 -0.647792 1.63119 -1.0124 87.8161 -24.3339 -113.799 -129.146 66.6714 136.23 -55.7092 -25.701 -151.704 -40.8986 -8.38718 7.15714 -87.8601 -38.9364 79.7002 -39.3898 -6.4317 -96.2043 76.2868 14.3953 -92.0119 -5.72743 -0.138817 -2.72109 40.1962 0.0192775 8.42069 -7.19344 -4.12774 -0.110586 
-93.4673 23.5617 129.698 -8.63849 -5.17688 -94.2442 -157.282 13.2356 91.0801 -47.0934 14.9089 -11.9614 84.3714 13.797 -8.53716 35.7778 0.303846 20.6117 154.001 29.334 61.3522 -53.2109 -28.6981 6.18864 74.9906 -8.10574 2.13631 42.1597 -4.54678 -0.638452 0.549067 6.57442 -90.6958 13.7282 0.750274 -1.49316 2.05664 0.683849 -1.52472 -20.4755 1.16431 -1.19868 -0.46284 1.16432 -1.19869 88.6729 -22.4531 -112.952 -120.288 84.8866 122.136 -56.8417 -18.388 -143.877 -34.7336 -7.88564 10.1978 -86.2899 -38.7594 82.3581 -43.7651 -11.326 -95.7468 74.4008 14.776 -91.7437 -5.49388 -0.139548 -2.61098 30.9394 2.80589 12.9549 -3.42952 -2.59843 -1.88173 
-92.2991 23.9893 129.902 -7.77239 -3.40359 -96.2116 -157.064 14.2609 89.3529 -47.6962 16.9076 -12.632 84.4873 13.8155 -8.58747 36.1531 0.419028 21.6136 153.093 29.5031 61.0202 -50.2279 -23.9077 7.29371 80.2412 -10.5749 3.23147 45.8241 -5.94153 -4.15415 0.337727 6.51426 -90.7799 13.845 0.289387 -1.60229 2.17308 0.218598 -1.61351 -20.3556 0.757525 -1.44131 -0.342936 0.757508 -1.44133 90.5774 -19.0099 -110.447 41.4933 77.2877 -41.9711 -60.9388 -14.0802 -134.914 -33.6614 -8.05691 11.8098 -86.1773 -36.9063 82.1874 -49.4583 -17.2685 -96.3713 73.1337 16.328 -91.1208 -5.05733 -0.0990368 -3.93969 26.7023 4.60049 16.4467 -1.72146 -1.71721 -1.32799 
